# xmcd CD database file
#
# Track frame offsets:
#	150
#	17378
#	36314
#	53815
#	69833
#	87877
#	105139
#	129001
#	157318
#	173353
#	186885
#
# Disc length: 2593 seconds
#
# Revision: 0
# Processed by: cddbd v1.5.1PL0 Copyright (c) Steve Scherf et al.
# Submitted via: CDex 1.51
#
DISCID=770a1f0b
DTITLE=Various Artist - Shock Records Country Sampler 2002
DYEAR=2002
DGENRE=Country
TTITLE0=Buddy and Julie Miller - Keep your distance
TTITLE1=Dolly Parton - Little sparrow
TTITLE2=Alison Kraus and Union Station - New Favorite
TTITLE3=Rodney Crowell - Why don't we talk about it
TTITLE4=Kevin Welch - When the sun shines down on me
TTITLE5=Dannie Leigh - Somebody ought to do something about that girl
TTITLE6=Tony Joe White - Rich woman blues
TTITLE7=Gillian Welch - Revelator
TTITLE8=Pat Haney - Waitin' round to die
TTITLE9=Merle Haggard - If you've got the money
TTITLE10=Wayne Hancock - Life's lonesome road
EXTD=YEAR: 2002
EXTT0=
EXTT1=
EXTT2=
EXTT3=
EXTT4=
EXTT5=
EXTT6=
EXTT7=
EXTT8=
EXTT9=
EXTT10=
PLAYORDER=
